<svg xmlns="http://www.w3.org/2000/svg" width="28.125" height="45" viewBox="0 0 28.125 45">
  <path id="Icon_metro-location" data-name="Icon metro-location" d="M22.417,1.928A14.062,14.062,0,0,0,8.355,15.991c0,14.063,14.063,30.937,14.063,30.937S36.48,30.053,36.48,15.991A14.063,14.063,0,0,0,22.417,1.928Zm0,22.676a8.613,8.613,0,1,1,8.613-8.613A8.613,8.613,0,0,1,22.417,24.6Zm-5.449-8.613a5.449,5.449,0,1,1,5.449,5.449A5.449,5.449,0,0,1,16.968,15.991Z" transform="translate(-8.355 -1.928)" fill="#e1e3db"/>
</svg>
